HIERARCHY
ROOT Hips
{
	OFFSET 0.000000 89.005402 0.000000
	CHANNELS 6 Xposition Yposition Zposition Xrotation Yrotation Zrotation
	JOINT Spine
	{
		OFFSET 0.116900 10.681000 0.373400
		CHANNELS 3 Xrotation Yrotation Zrotation
		JOINT Spine1
		{
			OFFSET 0.000000 13.840401 0.053500
			CHANNELS 3 Xrotation Yrotation Zrotation
			JOINT Spine2
			{
				OFFSET 0.000000 14.712700 -0.366200
				CHANNELS 3 Xrotation Yrotation Zrotation
				JOINT Neck
				{
					OFFSET 0.000000 35.415497 -3.314200
					CHANNELS 3 Xrotation Yrotation Zrotation
					JOINT Head
					{
						OFFSET 0.000000 16.899200 1.218300
						CHANNELS 3 Xrotation Yrotation Zrotation
						JOINT HeadTop_End
						{
							OFFSET 0.000000 22.206207 2.192500
							CHANNELS 3 Xrotation Yrotation Zrotation
							End Site
							{
								OFFSET 0.000000 22.314178 0.000000
							}
						}
					}
				}
				JOINT LeftShoulder
				{
					OFFSET 12.896400 26.716293 -4.548400
					CHANNELS 3 Xrotation Yrotation Zrotation
					JOINT LeftArm
					{
						OFFSET 19.027000 -4.857010 -1.718400
						CHANNELS 3 Xrotation Yrotation Zrotation
						JOINT LeftForeArm
						{
							OFFSET 24.179897 0.000000 0.000000
							CHANNELS 3 Xrotation Yrotation Zrotation
							JOINT LeftHand
							{
								OFFSET 27.156403 0.000000 0.000000
								CHANNELS 3 Xrotation Yrotation Zrotation
								JOINT LeftHandIndex1
								{
									OFFSET 16.441200 0.000000 0.000000
									CHANNELS 3 Xrotation Yrotation Zrotation
									JOINT LeftHandIndex2
									{
										OFFSET 4.821899 0.000000 0.000000
										CHANNELS 3 Xrotation Yrotation Zrotation
										JOINT LeftHandIndex3
										{
											OFFSET 6.386497 0.000000 0.000000
											CHANNELS 3 Xrotation Yrotation Zrotation
											JOINT LeftHandIndex4
											{
												OFFSET 5.188988 0.000000 0.000000
												CHANNELS 3 Xrotation Yrotation Zrotation
												End Site
												{
													OFFSET -0.178703 5.185913 0.000177
												}
											}
										}
									}
								}
								JOINT LeftHandThumb1
								{
									OFFSET 6.534897 -5.032593 5.900300
									CHANNELS 3 Xrotation Yrotation Zrotation
									JOINT LeftHandThumb2
									{
										OFFSET 3.818176 -2.204422 2.204423
										CHANNELS 3 Xrotation Yrotation Zrotation
										JOINT LeftHandThumb3
										{
											OFFSET 3.252098 -1.877594 1.877601
											CHANNELS 3 Xrotation Yrotation Zrotation
											JOINT LeftHandThumb4
											{
												OFFSET 5.251778 -3.032120 3.032117
												CHANNELS 3 Xrotation Yrotation Zrotation
												End Site
												{
													OFFSET 0.000023 6.780014 0.000000
												}
											}
										}
									}
								}
							}
						}
					}
				}
				JOINT RightShoulder
				{
					OFFSET -12.896300 26.716293 -4.548400
					CHANNELS 3 Xrotation Yrotation Zrotation
					JOINT RightArm
					{
						OFFSET -19.027000 -4.857010 -1.718400
						CHANNELS 3 Xrotation Yrotation Zrotation
						JOINT RightForeArm
						{
							OFFSET -24.179897 0.000000 0.000000
							CHANNELS 3 Xrotation Yrotation Zrotation
							JOINT RightHand
							{
								OFFSET -27.156403 0.000000 0.000000
								CHANNELS 3 Xrotation Yrotation Zrotation
								JOINT RightHandThumb1
								{
									OFFSET -6.591202 -4.852203 5.988100
									CHANNELS 3 Xrotation Yrotation Zrotation
									JOINT RightHandThumb2
									{
										OFFSET -3.818176 -2.204422 2.204423
										CHANNELS 3 Xrotation Yrotation Zrotation
										JOINT RightHandThumb3
										{
											OFFSET -3.252098 -1.877594 1.877601
											CHANNELS 3 Xrotation Yrotation Zrotation
											JOINT RightHandThumb4
											{
												OFFSET -5.251778 -3.032120 3.032117
												CHANNELS 3 Xrotation Yrotation Zrotation
												End Site
												{
													OFFSET -0.000023 6.780014 0.000000
												}
											}
										}
									}
								}
								JOINT RightHandIndex1
								{
									OFFSET -16.029404 0.000000 0.000000
									CHANNELS 3 Xrotation Yrotation Zrotation
									JOINT RightHandIndex2
									{
										OFFSET -5.213303 0.000000 0.000000
										CHANNELS 3 Xrotation Yrotation Zrotation
										JOINT RightHandIndex3
										{
											OFFSET -6.386528 0.000000 0.000000
											CHANNELS 3 Xrotation Yrotation Zrotation
											JOINT RightHandIndex4
											{
												OFFSET -5.189026 0.000000 0.000000
												CHANNELS 3 Xrotation Yrotation Zrotation
												End Site
												{
													OFFSET 0.236702 5.183624 0.001972
												}
											}
										}
									}
								}
							}
						}
					}
				}
			}
		}
	}
	JOINT LeftUpLeg
	{
		OFFSET 14.073000 -7.904099 -1.463000
		CHANNELS 3 Xrotation Yrotation Zrotation
		JOINT LeftLeg
		{
			OFFSET -0.109806 -34.073280 4.093200
			CHANNELS 3 Xrotation Yrotation Zrotation
			JOINT LeftFoot
			{
				OFFSET 0.109806 -29.899420 -6.319000
				CHANNELS 3 Xrotation Yrotation Zrotation
				JOINT LeftToeBase
				{
					OFFSET 1.551100 -14.988700 20.535801
					CHANNELS 3 Xrotation Yrotation Zrotation
					JOINT LeftToe_End
					{
						OFFSET 0.221200 0.570800 13.248301
						CHANNELS 3 Xrotation Yrotation Zrotation
						End Site
						{
							OFFSET 0.000000 13.262435 0.000000
						}
					}
				}
			}
		}
	}
	JOINT RightUpLeg
	{
		OFFSET -13.839300 -7.904099 -1.463000
		CHANNELS 3 Xrotation Yrotation Zrotation
		JOINT RightLeg
		{
			OFFSET 0.109694 -34.073219 4.093300
			CHANNELS 3 Xrotation Yrotation Zrotation
			JOINT RightFoot
			{
				OFFSET -0.109694 -29.899384 -6.319200
				CHANNELS 3 Xrotation Yrotation Zrotation
				JOINT RightToeBase
				{
					OFFSET -1.551100 -14.988700 20.535801
					CHANNELS 3 Xrotation Yrotation Zrotation
					JOINT RightToe_End
					{
						OFFSET -0.221200 0.570900 13.248299
						CHANNELS 3 Xrotation Yrotation Zrotation
						End Site
						{
							OFFSET 0.000000 13.262440 0.000000
						}
					}
				}
			}
		}
	}
}
MOTION
Frames: 5
Frame Time: 0.033333
-0.926182 48.082375 2.149857 -0.537776 4.410145 -8.409424 4.077297 3.444589 -2.718891 8.251201 6.772755 -4.728781 8.251206 6.772756 -4.728785 -2.960769 29.386851 5.421861 4.451721 35.046968 -20.499582 0.000001 -0.000000 -0.000000 1.033523 -15.235055 -11.647807 3.042445 -0.761200 -32.016365 40.133550 -33.388184 -1.908149 12.866396 10.638188 2.322276 -1.240221 -9.026402 -4.968843 -0.136534 0.199310 -21.713036 0.000001 0.000002 0.000004 0.000004 -0.000001 0.000000 -9.430081 -10.455662 8.418337 2.375720 6.684489 2.195285 -0.000006 0.000009 0.000014 0.000002 0.000001 -0.000001 3.185234 -18.297119 12.806506 12.807462 -13.875022 59.330479 29.940807 40.956949 -3.738840 19.089462 -1.945298 12.311399 -7.843443 4.773323 -9.669394 -0.601655 -0.082527 -1.244044 -0.000006 -0.000001 -0.000027 -0.000002 -0.000001 -0.000001 -1.235136 0.595843 8.695268 0.143306 -1.127028 16.866737 -0.000000 -0.000000 -0.000004 -0.000003 0.000001 0.000001 -74.135823 -18.756645 21.860372 117.203055 -0.999709 1.721376 -36.645205 6.351229 -15.482311 -1.123490 1.240232 1.269466 -0.000000 -0.000001 0.000000 -49.695265 11.775640 -32.154704 105.882740 8.904362 0.821471 -37.403410 -11.405229 27.128924 -9.236167 -3.037936 -0.173101 -0.000001 0.000002 0.000000 
-0.911856 48.156616 2.227603 -1.551299 7.016025 -8.792066 4.468774 3.297735 -2.393842 9.012132 6.443464 -4.091597 9.012136 6.443469 -4.091599 -0.564215 28.024659 5.586429 5.175925 34.000658 -22.073408 0.000001 0.000000 -0.000000 0.725937 -14.167268 -13.814327 -0.529663 -3.214309 -31.214811 40.157107 -32.104276 -3.134165 15.828016 9.783588 2.416677 -1.232911 -8.665719 -5.000619 -0.120586 0.253194 -21.250711 -0.000002 0.000002 -0.000001 -0.000000 -0.000000 0.000000 -8.146149 -9.198053 7.879171 2.207853 6.272522 2.114104 0.000000 0.000008 0.000014 0.000001 0.000001 -0.000000 3.302704 -14.383829 14.322965 8.576879 -15.125089 53.482813 30.562945 37.967478 -3.104997 23.486970 1.008642 11.464463 -7.900879 4.124512 -9.088820 0.016590 -1.443543 -1.452501 -0.000004 -0.000003 -0.000029 -0.000001 -0.000001 0.000001 -1.217536 0.484597 8.436338 0.143306 -1.127035 16.866712 -0.000001 -0.000005 0.000001 -0.000004 0.000002 -0.000003 -74.935358 -18.833856 19.797450 117.085876 0.000182 2.070406 -35.400590 5.897862 -15.088245 -1.391770 0.195007 1.572386 0.000000 0.000001 0.000000 -46.802201 10.402521 -31.728141 107.716215 5.360542 0.321897 -39.445172 -11.443609 26.056484 -10.947852 -3.308299 2.611131 0.000000 -0.000001 -0.000000 
-0.971706 48.207069 2.287894 -2.335988 11.351836 -9.870680 4.985866 3.146019 -1.761821 10.005778 6.108537 -2.791673 10.005771 6.108534 -2.791665 2.647043 24.874412 6.614703 5.850784 31.772998 -23.993254 -0.000002 0.000000 -0.000000 0.291358 -12.998307 -17.320999 -6.137903 -8.719628 -30.329581 40.272991 -28.160718 -4.748390 19.892318 8.073018 3.773195 -3.466519 -5.153210 -6.559794 -0.097990 0.311710 -20.735577 0.000004 0.000001 -0.000000 -0.000004 -0.000001 0.000001 -6.537018 -8.015425 8.448713 2.025556 5.821512 2.025813 0.000001 0.000006 0.000015 0.000001 0.000000 -0.000002 3.260170 -9.677168 16.112645 3.146279 -15.072228 45.123249 29.330226 31.784094 -1.391867 25.109473 2.157787 9.439195 -7.982154 3.447582 -8.453400 0.676850 -2.910314 -1.660595 -0.000009 -0.000002 -0.000028 0.000002 0.000001 -0.000000 -1.254669 0.478850 9.704779 0.096284 -0.977871 18.419521 0.000005 0.000002 -0.000002 -0.000000 0.000003 -0.000004 -77.450643 -20.549307 16.247963 116.844360 0.406622 2.323091 -32.791936 5.454161 -15.001290 -1.096883 -1.212574 2.333895 -0.000000 -0.000001 -0.000000 -43.007785 7.077465 -31.100249 109.380507 1.044902 -0.296878 -41.712809 -11.786228 25.377009 -12.741235 -4.229910 4.967594 -0.000000 -0.000001 0.000000 
-1.274817 48.157722 2.306300 -1.833879 17.708249 -12.094715 5.533073 2.975039 -0.914115 11.044914 5.744143 -0.954490 11.044910 5.744145 -0.954498 5.060608 21.683037 8.542313 5.843904 29.788303 -24.992565 -0.000003 -0.000000 0.000000 -0.029163 -11.871637 -20.598870 -12.422862 -18.721257 -30.825142 39.938503 -21.758727 -6.143922 20.566547 7.629088 10.406467 -7.986608 2.402591 -8.568124 -0.074459 0.374551 -20.184828 -0.000002 0.000002 0.000001 0.000001 -0.000001 0.000001 -4.599794 -6.873388 10.340189 1.833338 5.339105 1.931010 0.000001 0.000009 0.000013 -0.000001 0.000001 -0.000001 2.833471 -4.831257 17.151752 -1.958293 -12.340516 36.897437 25.254804 22.617138 0.822976 20.402649 0.211828 4.482723 -8.070011 2.724489 -7.779496 1.396576 -4.522627 -1.869796 -0.000001 -0.000003 -0.000030 0.000002 0.000003 0.000001 -1.351843 0.590075 12.717406 -0.017382 -0.664373 21.730909 0.000002 0.000001 -0.000003 0.000000 0.000001 0.000001 -82.972359 -22.704304 10.703186 116.509080 2.145496 2.643113 -29.450027 4.734848 -14.083625 -0.307780 -3.066575 3.819632 -0.000000 -0.000001 0.000000 -38.966181 1.596447 -29.841838 110.466412 -3.492114 -0.900682 -43.932887 -12.730117 25.810493 -14.321776 -5.698861 7.108081 -0.000001 0.000000 0.000000 
-1.827246 47.959198 2.447395 0.542381 24.895017 -15.152751 5.941765 2.801358 -0.296431 11.820164 5.348776 0.487098 11.820168 5.348773 0.487088 5.693742 20.191697 11.364176 6.874356 29.417884 -25.948119 0.000003 -0.000000 -0.000000 0.140895 -10.051278 -21.338612 -21.535843 -29.153348 -36.895101 37.356760 -16.613940 -6.536345 20.417122 8.209546 17.888187 -11.330385 9.013784 -9.710747 -0.050469 0.439580 -19.615863 -0.000004 0.000003 0.000002 -0.000002 -0.000000 -0.000000 -2.649092 -5.478428 11.714103 1.632067 4.835118 1.830523 0.000001 0.000007 0.000015 0.000000 0.000002 0.000001 2.229250 0.146631 17.837099 -7.985925 -9.549048 29.866184 21.762251 15.528184 2.511592 19.299951 -0.145172 -1.365176 -8.158951 1.961539 -7.079586 2.140378 -6.201082 -2.066256 -0.000005 0.000000 -0.000031 0.000003 -0.000002 -0.000002 -1.448493 0.696287 15.716387 -0.148959 -0.357951 25.043023 0.000000 -0.000004 -0.000003 -0.000002 -0.000000 0.000001 -90.185497 -24.070994 5.344641 116.301511 4.407096 2.708800 -25.942879 4.426095 -13.394353 0.148031 -4.769792 5.939372 -0.000000 -0.000000 0.000001 -35.548686 -4.572278 -27.853110 111.246699 -7.946551 -1.490936 -46.206400 -14.195879 27.066610 -15.685207 -7.871556 9.574961 -0.000000 0.000000 0.000000 
